<?xml version="1.0" standalone="no"?>
<!DOCTYPE svg PUBLIC "-//W3C//DTD SVG 20010904//EN"
 "http://www.w3.org/TR/2001/REC-SVG-20010904/DTD/svg10.dtd">
<svg version="1.0" xmlns="http://www.w3.org/2000/svg"
 width="924.000000pt" height="270.000000pt" viewBox="0 0 924.000000 270.000000"
 preserveAspectRatio="xMidYMid meet">

<g transform="translate(0.000000,270.000000) scale(0.100000,-0.100000)"
fill="#000000" stroke="none">
<path d="M262 2099 c-49 -14 -107 -77 -120 -132 -16 -60 -17 -1245 -2 -1299 6
-20 26 -50 46 -67 l35 -31 485 0 c547 0 526 -3 564 75 18 37 20 63 20 236 l1
194 229 232 c191 192 230 237 230 260 0 23 -24 52 -123 151 -91 91 -129 122
-147 122 -18 0 -47 -21 -100 -75 -41 -41 -77 -75 -80 -75 -3 0 -11 19 -17 43
-7 23 -25 55 -43 72 l-31 30 -461 5 -460 5 -19 24 c-26 32 -24 73 4 99 23 22
24 22 494 22 461 0 471 0 497 21 31 25 33 48 6 77 l-21 22 -477 -1 c-268 0
-491 -5 -510 -10z m896 -374 c8 -3 12 -30 12 -87 l0 -83 -212 -212 -212 -212
-7 -58 c-4 -32 -8 -97 -8 -145 -1 -118 4 -123 123 -114 49 3 109 6 134 6 41 0
49 5 113 67 l70 67 -3 -135 -3 -134 -455 0 -455 0 -3 525 -2 525 447 -3 c247
-1 454 -4 461 -7z m392 -90 l64 -65 -27 -28 -27 -27 -65 70 -65 69 22 23 c12
13 24 23 28 23 3 0 35 -29 70 -65z m-90 -90 l65 -65 -265 -268 c-285 -288
-308 -305 -336 -251 -8 16 -28 36 -44 44 -57 30 -48 43 236 333 146 150 269
272 273 272 3 0 36 -29 71 -65z"/>
<path d="M400 1535 c-8 -10 -10 -19 -4 -25 7 -7 269 -14 417 -10 13 0 17 6 15
23 -3 22 -4 22 -209 25 -177 2 -208 0 -219 -13z"/>
<path d="M397 1356 c-12 -32 18 -36 224 -34 196 3 204 4 204 23 0 19 -8 20
-211 23 -177 2 -213 0 -217 -12z"/>
<path d="M2155 1636 c-64 -30 -107 -76 -141 -150 -22 -49 -27 -74 -27 -141 0
-138 48 -232 148 -291 53 -31 166 -43 232 -25 86 23 160 106 178 199 l7 32
-59 0 -59 0 -21 -50 c-18 -43 -29 -54 -69 -71 -60 -27 -114 -21 -163 19 -108
87 -91 319 29 380 24 12 58 22 75 22 43 0 106 -39 124 -77 15 -31 18 -33 78
-33 l62 0 -8 28 c-23 79 -89 149 -160 170 -67 20 -169 15 -226 -12z"/>
<path d="M2814 1644 c-55 -20 -121 -86 -153 -153 -23 -49 -26 -69 -26 -156 1
-113 17 -158 84 -228 53 -56 104 -79 187 -85 93 -6 158 15 222 73 73 66 97
126 97 245 0 82 -4 103 -27 152 -33 71 -95 132 -155 152 -57 20 -174 20 -229
0z m179 -98 c69 -29 109 -103 109 -205 1 -102 -39 -177 -109 -207 -86 -37
-181 5 -219 95 -19 45 -18 172 1 219 40 94 131 135 218 98z"/>
<path d="M5080 1340 l0 -320 68 0 67 0 0 137 0 138 138 3 137 3 0 -141 0 -140
65 0 65 0 0 320 0 320 -65 0 -65 0 0 -125 0 -126 -137 3 -138 3 0 123 0 122
-67 0 -68 0 0 -320z"/>
<path d="M5760 1340 l0 -320 240 0 240 0 0 55 0 55 -175 0 -175 0 0 85 0 85
160 0 160 0 0 50 0 49 -157 3 -158 3 -3 73 -3 72 176 0 175 0 0 55 0 55 -240
0 -240 0 0 -320z"/>
<path d="M6350 1340 l0 -320 225 0 225 0 0 55 0 55 -160 0 -160 0 0 265 0 265
-65 0 -65 0 0 -320z"/>
<path d="M6890 1340 l0 -320 70 0 70 0 0 114 0 113 113 5 c123 5 176 23 215
73 51 65 56 183 10 253 -48 71 -86 82 -296 82 l-182 0 0 -320z m354 191 c21
-20 26 -34 26 -72 0 -82 -43 -108 -177 -109 l-63 0 0 106 0 106 94 -4 c84 -3
97 -6 120 -27z"/>
<path d="M7500 1340 l0 -320 245 0 245 0 0 55 0 55 -177 2 -178 3 0 80 0 80
158 3 157 3 0 49 0 49 -157 3 -158 3 0 70 0 70 173 3 172 2 0 55 0 55 -240 0
-240 0 0 -320z"/>
<path d="M8090 1340 l2 -320 68 0 69 0 3 128 3 127 90 -1 c52 0 100 -6 113
-13 31 -16 48 -60 57 -141 10 -104 8 -100 80 -100 l64 0 -10 32 c-5 18 -9 55
-9 83 0 87 -33 159 -81 178 -10 4 -5 12 19 32 45 37 63 78 63 140 0 57 -10 85
-45 123 -43 49 -62 52 -281 52 l-206 0 1 -320z m375 195 c20 -19 25 -34 25
-74 0 -42 -4 -53 -26 -70 -23 -18 -41 -21 -130 -21 l-104 0 0 95 0 95 105 0
c99 0 107 -2 130 -25z"/>
<path d="M3270 1648 c0 -2 45 -140 99 -308 l100 -305 72 0 73 0 78 235 c44
129 89 268 102 308 l24 72 -64 0 c-43 0 -66 -4 -69 -12 -2 -7 -34 -107 -71
-221 -37 -115 -70 -205 -74 -200 -5 4 -31 82 -60 173 -28 91 -58 186 -66 213
l-16 47 -64 0 c-35 0 -64 -1 -64 -2z"/>
<path d="M3880 1340 l0 -310 231 2 231 3 2 53 1 52 -167 0 -168 0 0 80 0 80
150 0 150 0 0 50 0 50 -150 0 -150 0 0 70 0 70 165 0 165 0 0 55 0 55 -230 0
-230 0 0 -310z"/>
<path d="M4450 1341 l0 -311 60 0 59 0 3 123 3 122 72 3 c141 6 166 -15 185
-153 l13 -90 61 -3 61 -3 -9 48 c-4 26 -10 73 -13 104 -7 62 -36 118 -66 126
-26 7 -25 11 20 50 84 72 69 210 -30 268 -30 18 -56 20 -226 23 l-193 4 0
-311z m355 184 c34 -33 34 -93 1 -132 -24 -27 -27 -28 -128 -28 l-103 0 -3 79
c-2 44 -1 85 2 93 4 10 31 13 106 13 94 0 103 -2 125 -25z"/>
</g>
</svg>
