<svg xmlns="http://www.w3.org/2000/svg" xmlns:xlink="http://www.w3.org/1999/xlink" width="1080" height="1080" version="1.1" style="shape-rendering:geometricPrecision;text-rendering:geometricPrecision;image-rendering:optimizeQuality;fill-rule:evenodd;clip-rule:evenodd"><g><path style="opacity:.993" fill="#1062e4" d="M 588.5,223.5 C 592.833,223.5 597.167,223.5 601.5,223.5C 614.138,295.523 626.971,367.523 640,439.5C 640.817,442.964 640.483,446.298 639,449.5C 600.833,498.333 562.667,547.167 524.5,596C 463.549,607.257 402.549,618.257 341.5,629C 337.205,630.845 336.538,633.512 339.5,637C 340.333,637.167 341.167,637.333 342,637.5C 400.463,626.895 458.963,616.562 517.5,606.5C 509.66,636.858 501.66,667.191 493.5,697.5C 494.143,700.975 496.143,702.141 499.5,701C 527.328,685.92 554.994,670.587 582.5,655C 608.048,623.12 633.215,590.953 658,558.5C 659.011,557.663 660.178,557.33 661.5,557.5C 670.243,608.879 679.243,660.213 688.5,711.5C 761.17,711.167 833.836,711.5 906.5,712.5C 895.167,728.833 883.833,745.167 872.5,761.5C 883.667,777.833 894.833,794.167 906,810.5C 906.483,811.448 906.649,812.448 906.5,813.5C 789.833,813.333 673.166,813.5 556.5,814C 476.228,828.601 395.895,842.767 315.5,856.5C 313.149,842.246 310.482,828.079 307.5,814C 262.835,813.5 218.168,813.333 173.5,813.5C 173.34,811.801 173.506,810.134 174,808.5C 185.028,792.971 195.862,777.304 206.5,761.5C 196,746.5 185.5,731.5 175,716.5C 173.991,714.975 173.491,713.308 173.5,711.5C 212.167,711.5 250.833,711.5 289.5,711.5C 273.443,620.826 257.276,530.159 241,439.5C 240.501,435.179 240.334,430.846 240.5,426.5C 282.475,418.939 324.475,411.439 366.5,404C 370.175,403.835 372.842,402.168 374.5,399C 366.184,354.92 358.184,310.753 350.5,266.5C 430.001,252.398 509.334,238.064 588.5,223.5 Z M 546.5,311.5 C 552.828,312.653 553.828,315.486 549.5,320C 512.615,327.314 475.615,333.647 438.5,339C 435.538,335.512 436.205,332.845 440.5,331C 476.002,324.664 511.336,318.164 546.5,311.5 Z M 569.5,447.5 C 575.662,447.45 577.329,449.95 574.5,455C 489.123,471.008 403.623,486.508 318,501.5C 313.245,500.358 312.411,497.858 315.5,494C 400.302,478.537 484.969,463.037 569.5,447.5 Z"/></g><g><path style="opacity:.968" fill="#1163e4" d="M 804.5,267.5 C 819.412,266.368 830.245,272.368 837,285.5C 841.393,301.165 838.227,315.165 827.5,327.5C 816.126,306.473 798.792,293.14 775.5,287.5C 782.49,276.826 792.157,270.16 804.5,267.5 Z"/></g><g><path style="opacity:.984" fill="#0f62e4" d="M 340.5,276.5 C 342.124,276.36 343.29,277.027 344,278.5C 350.779,316.676 357.613,354.843 364.5,393C 364.167,393.833 363.833,394.667 363.5,395.5C 326.24,402.652 288.907,409.485 251.5,416C 249.098,416.814 246.765,416.647 244.5,415.5C 276.551,369.131 308.551,322.797 340.5,276.5 Z"/></g><g><path style="opacity:.977" fill="#1062e4" d="M 768.5,297.5 C 791.393,298.866 807.893,309.866 818,330.5C 818.667,333.833 818.667,337.167 818,340.5C 810.309,350.024 802.809,359.69 795.5,369.5C 794.311,370.429 792.978,370.762 791.5,370.5C 784.381,354.549 772.715,343.049 756.5,336C 752.064,333.891 747.397,332.724 742.5,332.5C 742.343,331.127 742.51,329.793 743,328.5C 751.394,317.953 759.894,307.619 768.5,297.5 Z"/></g><g><path style="opacity:.988" fill="#0f62e4" d="M 736.5,340.5 C 754.145,342.404 768.311,350.404 779,364.5C 781.976,368.786 784.143,373.453 785.5,378.5C 784.846,380.115 784.346,381.782 784,383.5C 719.691,466.643 655.191,549.643 590.5,632.5C 589.311,633.429 587.978,633.762 586.5,633.5C 576.686,611.904 560.019,598.904 536.5,594.5C 599.142,513.357 661.976,432.357 725,351.5C 728.095,346.902 731.928,343.235 736.5,340.5 Z"/></g><g><path style="opacity:.975" fill="#0f62e4" d="M 531.5,603.5 C 553.465,605.626 569.299,616.626 579,636.5C 579.978,640.9 579.478,645.067 577.5,649C 555.672,660.746 534.006,672.746 512.5,685C 510.35,686.411 508.016,687.245 505.5,687.5C 512.013,660.782 518.846,634.115 526,607.5C 527.812,606.023 529.645,604.69 531.5,603.5 Z"/></g><g><path style="opacity:1" fill="#76a3ef" d="M 257.5,725.5 C 251.464,725.36 245.464,725.693 239.5,726.5C 242.695,724.97 246.195,724.304 250,724.5C 252.69,724.503 255.19,724.836 257.5,725.5 Z"/></g><g><path style="opacity:1" fill="#75a3ef" d="M 318.5,725.5 C 312.464,725.36 306.464,725.693 300.5,726.5C 303.695,724.97 307.195,724.304 311,724.5C 313.69,724.503 316.19,724.836 318.5,725.5 Z"/></g><g><path style="opacity:1" fill="#8cb3f2" d="M 455.5,726.5 C 441.451,726.201 427.451,726.535 413.5,727.5C 413.611,726.883 413.944,726.383 414.5,726C 428.34,725.173 442.006,725.339 455.5,726.5 Z"/></g><g><path style="opacity:1" fill="#f7f9fe" d="M 257.5,725.5 C 269.925,728.681 275.759,736.681 275,749.5C 270.587,750.632 266.087,750.799 261.5,750C 259.788,740.302 254.121,736.968 244.5,740C 242.959,741.579 241.792,743.413 241,745.5C 240.333,756.5 240.333,767.5 241,778.5C 243.208,785.11 247.708,787.276 254.5,785C 256.002,784.417 257.335,783.584 258.5,782.5C 259.462,779.115 260.796,775.949 262.5,773C 266.5,772.333 270.5,772.333 274.5,773C 276.395,784.71 272.062,793.21 261.5,798.5C 253.383,800.062 245.383,799.729 237.5,797.5C 230.362,792.909 226.529,786.243 226,777.5C 225.333,767.167 225.333,756.833 226,746.5C 226.82,737.152 231.32,730.485 239.5,726.5C 245.464,725.693 251.464,725.36 257.5,725.5 Z"/></g><g><path style="opacity:1" fill="#f8fafe" d="M 318.5,725.5 C 329.402,728.24 335.568,735.24 337,746.5C 337.843,758.872 337.51,771.205 336,783.5C 333.683,790.642 329.183,795.642 322.5,798.5C 314.383,800.062 306.383,799.729 298.5,797.5C 291.617,792.784 287.784,786.117 287,777.5C 286.333,767.167 286.333,756.833 287,746.5C 287.82,737.152 292.32,730.485 300.5,726.5C 306.464,725.693 312.464,725.36 318.5,725.5 Z"/></g><g><path style="opacity:1" fill="#f8fafe" d="M 344.5,725.5 C 348.846,725.334 353.179,725.501 357.5,726C 358,726.5 358.5,727 359,727.5C 363.668,742.85 368.335,758.183 373,773.5C 378.717,758.35 384.051,743.017 389,727.5C 389.5,727 390,726.5 390.5,726C 394.755,725.204 398.921,725.371 403,726.5C 398.643,743.248 393.643,759.914 388,776.5C 385.6,784.377 382.434,791.877 378.5,799C 374.833,799.667 371.167,799.667 367.5,799C 366.206,796.913 365.039,794.746 364,792.5C 358.676,775.847 353.343,759.181 348,742.5C 346.305,736.923 345.138,731.256 344.5,725.5 Z"/></g><g><path style="opacity:1" fill="#fbfcfe" d="M 455.5,726.5 C 456.797,731.066 456.797,735.733 455.5,740.5C 446.167,740.5 436.833,740.5 427.5,740.5C 427.5,744.833 427.5,749.167 427.5,753.5C 433.833,753.5 440.167,753.5 446.5,753.5C 449.5,753.5 452.5,753.5 455.5,753.5C 455.5,758.167 455.5,762.833 455.5,767.5C 446.167,767.5 436.833,767.5 427.5,767.5C 427.5,773.167 427.5,778.833 427.5,784.5C 437.167,784.5 446.833,784.5 456.5,784.5C 456.5,788.833 456.5,793.167 456.5,797.5C 442.333,798.825 428.167,798.825 414,797.5C 413.5,774.169 413.333,750.836 413.5,727.5C 427.451,726.535 441.451,726.201 455.5,726.5 Z"/></g><g><path style="opacity:1" fill="#f9fafe" d="M 486.5,770.5 C 485.432,769.566 484.099,769.232 482.5,769.5C 482.5,773.833 482.5,778.167 482.5,782.5C 482.666,787.511 482.499,792.511 482,797.5C 477.667,798.833 473.333,798.833 469,797.5C 468.333,774.167 468.333,750.833 469,727.5C 473.414,726.199 478.081,725.532 483,725.5C 490.202,725.532 497.369,726.032 504.5,727C 518.202,735.642 521.035,747.142 513,761.5C 508.817,764.16 504.983,767.16 501.5,770.5C 503.137,775.107 505.304,779.44 508,783.5C 511.507,785.578 515.174,787.245 519,788.5C 520.643,793.428 519.143,796.928 514.5,799C 506.025,801.179 499.858,798.346 496,790.5C 492.924,783.761 489.757,777.094 486.5,770.5 Z"/></g><g><path style="opacity:1" fill="#f9fbfe" d="M 563.5,797.5 C 563.5,788.5 563.5,779.5 563.5,770.5C 556.5,770.5 549.5,770.5 542.5,770.5C 542.5,779.5 542.5,788.5 542.5,797.5C 538.1,798.823 533.6,798.823 529,797.5C 528.333,774.167 528.333,750.833 529,727.5C 529.5,727 530,726.5 530.5,726C 534.541,725.173 538.541,725.34 542.5,726.5C 543.474,736.113 543.808,745.78 543.5,755.5C 550.167,755.5 556.833,755.5 563.5,755.5C 563.334,746.161 563.5,736.827 564,727.5C 565.87,726.257 568.036,725.59 570.5,725.5C 572.759,725.532 574.925,725.866 577,726.5C 577.5,750.498 577.667,774.498 577.5,798.5C 572.637,798.819 567.97,798.486 563.5,797.5 Z"/></g><g><path style="opacity:1" fill="#f8fafe" d="M 632.5,767.5 C 623.167,767.5 613.833,767.5 604.5,767.5C 604.5,773.167 604.5,778.833 604.5,784.5C 613.833,784.5 623.167,784.5 632.5,784.5C 633.117,784.611 633.617,784.944 634,785.5C 634.767,789.558 634.6,793.558 633.5,797.5C 619.182,798.499 604.849,798.833 590.5,798.5C 590.333,774.831 590.5,751.164 591,727.5C 591.5,727 592,726.5 592.5,726C 606.179,725.167 619.846,725.334 633.5,726.5C 634.6,730.442 634.767,734.442 634,738.5C 624.763,740.457 615.263,741.124 605.5,740.5C 605.5,744.833 605.5,749.167 605.5,753.5C 614.833,753.5 624.167,753.5 633.5,753.5C 633.774,758.263 633.441,762.93 632.5,767.5 Z"/></g><g><path style="opacity:1" fill="#fcfdfe" d="M 648.5,725.5 C 652.437,725.207 656.27,725.54 660,726.5C 660.5,745.83 660.667,765.164 660.5,784.5C 666.842,784.334 673.175,784.5 679.5,785C 680.629,789.079 680.796,793.245 680,797.5C 668.915,798.487 657.748,798.821 646.5,798.5C 646.333,774.831 646.5,751.164 647,727.5C 647.717,726.956 648.217,726.289 648.5,725.5 Z"/></g><g><path style="opacity:1" fill="#f6f8fe" d="M 725.5,767.5 C 722.627,767.802 719.961,768.469 717.5,769.5C 713.167,769.5 708.833,769.5 704.5,769.5C 704.807,778.887 704.473,788.22 703.5,797.5C 698.95,798.8 694.45,798.8 690,797.5C 689.333,774.5 689.333,751.5 690,728.5C 690.374,727.584 690.874,726.75 691.5,726C 702.872,725.174 714.206,725.508 725.5,727C 736.722,732.283 740.888,741.117 738,753.5C 736.104,760.228 731.937,764.895 725.5,767.5 Z"/></g><g><path style="opacity:1" fill="#f8fafe" d="M 791.5,767.5 C 782.167,767.5 772.833,767.5 763.5,767.5C 763.5,773.167 763.5,778.833 763.5,784.5C 772.833,784.5 782.167,784.5 791.5,784.5C 792.117,784.611 792.617,784.944 793,785.5C 793.767,789.558 793.6,793.558 792.5,797.5C 778.182,798.499 763.849,798.833 749.5,798.5C 749.333,774.831 749.5,751.164 750,727.5C 750.5,727 751,726.5 751.5,726C 765.179,725.167 778.846,725.334 792.5,726.5C 793.6,730.442 793.767,734.442 793,738.5C 783.763,740.457 774.263,741.124 764.5,740.5C 764.5,744.833 764.5,749.167 764.5,753.5C 773.506,753.334 782.506,753.5 791.5,754C 792.806,758.499 792.806,762.999 791.5,767.5 Z"/></g><g><path style="opacity:1" fill="#f6f9fe" d="M 806.5,725.5 C 817.877,725.174 829.21,725.674 840.5,727C 851.417,732.001 855.583,740.501 853,752.5C 852.562,755.376 851.562,758.043 850,760.5C 846.026,763.891 841.859,766.891 837.5,769.5C 839.555,775.277 842.388,780.611 846,785.5C 849,786.5 852,787.5 855,788.5C 856.378,792.942 855.212,796.442 851.5,799C 847.833,799.667 844.167,799.667 840.5,799C 837.667,796.833 835.167,794.333 833,791.5C 829.474,784.586 826.14,777.586 823,770.5C 821.989,769.663 820.822,769.33 819.5,769.5C 819.807,778.887 819.473,788.22 818.5,797.5C 813.95,798.8 809.45,798.8 805,797.5C 804.333,774.5 804.333,751.5 805,728.5C 806.039,727.756 806.539,726.756 806.5,725.5 Z"/></g><g><path style="opacity:1" fill="#1965e4" d="M 305.5,739.5 C 309.514,739.334 313.514,739.501 317.5,740C 320.181,742.194 321.681,745.027 322,748.5C 322.667,757.167 322.667,765.833 322,774.5C 320.919,783.802 315.753,787.302 306.5,785C 304.19,783.363 302.69,781.196 302,778.5C 301.333,767.5 301.333,756.5 302,745.5C 302.926,743.308 304.093,741.308 305.5,739.5 Z"/></g><g><path style="opacity:1" fill="#3e80e9" d="M 455.5,740.5 C 446.682,741.493 437.682,741.827 428.5,741.5C 428.5,745.167 428.5,748.833 428.5,752.5C 434.69,752.177 440.69,752.51 446.5,753.5C 440.167,753.5 433.833,753.5 427.5,753.5C 427.5,749.167 427.5,744.833 427.5,740.5C 436.833,740.5 446.167,740.5 455.5,740.5 Z"/></g><g><path style="opacity:1" fill="#1f67e4" d="M 482.5,739.5 C 487.179,739.334 491.845,739.501 496.5,740C 502.368,743.04 503.868,747.54 501,753.5C 500.25,754.126 499.416,754.626 498.5,755C 493.177,755.499 487.844,755.666 482.5,755.5C 482.5,750.167 482.5,744.833 482.5,739.5 Z"/></g><g><path style="opacity:1" fill="#1a65e4" d="M 704.5,739.5 C 708.846,739.334 713.179,739.501 717.5,740C 721.68,741.024 723.68,743.69 723.5,748C 723.592,750.814 722.592,753.147 720.5,755C 715.177,755.499 709.844,755.666 704.5,755.5C 704.5,750.167 704.5,744.833 704.5,739.5 Z"/></g><g><path style="opacity:1" fill="#1b65e4" d="M 819.5,739.5 C 823.846,739.334 828.179,739.501 832.5,740C 838.095,742.354 839.928,746.521 838,752.5C 837.167,753.333 836.333,754.167 835.5,755C 830.177,755.499 824.844,755.666 819.5,755.5C 819.5,750.167 819.5,744.833 819.5,739.5 Z"/></g><g><path style="opacity:1" fill="#79a5ef" d="M 413.5,727.5 C 413.333,750.836 413.5,774.169 414,797.5C 428.167,798.825 442.333,798.825 456.5,797.5C 449.699,798.831 442.533,799.497 435,799.5C 427.59,799.492 420.257,799.159 413,798.5C 412.17,774.663 412.337,750.996 413.5,727.5 Z"/></g><g><path style="opacity:1" fill="#83abf0" d="M 725.5,767.5 C 723.22,769.223 720.553,769.889 717.5,769.5C 719.961,768.469 722.627,767.802 725.5,767.5 Z"/></g><g><path style="opacity:1" fill="#6b9cee" d="M 632.5,767.5 C 623.682,768.493 614.682,768.827 605.5,768.5C 605.5,773.5 605.5,778.5 605.5,783.5C 614.682,783.173 623.682,783.507 632.5,784.5C 623.167,784.5 613.833,784.5 604.5,784.5C 604.5,778.833 604.5,773.167 604.5,767.5C 613.833,767.5 623.167,767.5 632.5,767.5 Z"/></g><g><path style="opacity:1" fill="#6397ed" d="M 791.5,767.5 C 782.682,768.493 773.682,768.827 764.5,768.5C 764.5,773.5 764.5,778.5 764.5,783.5C 773.682,783.173 782.682,783.507 791.5,784.5C 782.167,784.5 772.833,784.5 763.5,784.5C 763.5,778.833 763.5,773.167 763.5,767.5C 772.833,767.5 782.167,767.5 791.5,767.5 Z"/></g><g><path style="opacity:1" fill="#669aed" d="M 486.5,770.5 C 485.5,770.5 484.5,770.5 483.5,770.5C 483.817,774.702 483.483,778.702 482.5,782.5C 482.5,778.167 482.5,773.833 482.5,769.5C 484.099,769.232 485.432,769.566 486.5,770.5 Z"/></g><g><path style="opacity:1" fill="#77a3ef" d="M 563.5,797.5 C 562.507,789.016 562.174,780.349 562.5,771.5C 556.167,771.5 549.833,771.5 543.5,771.5C 543.826,780.349 543.493,789.016 542.5,797.5C 542.5,788.5 542.5,779.5 542.5,770.5C 549.5,770.5 556.5,770.5 563.5,770.5C 563.5,779.5 563.5,788.5 563.5,797.5 Z"/></g><g><path style="opacity:1" fill="#709eee" d="M 237.5,797.5 C 245.383,799.729 253.383,800.062 261.5,798.5C 261.082,799.222 260.416,799.722 259.5,800C 253.833,800.667 248.167,800.667 242.5,800C 240.509,799.626 238.842,798.793 237.5,797.5 Z"/></g><g><path style="opacity:1" fill="#719fee" d="M 298.5,797.5 C 306.383,799.729 314.383,800.062 322.5,798.5C 319.135,800.039 315.469,800.706 311.5,800.5C 308.833,800.333 306.167,800.167 303.5,800C 301.509,799.626 299.842,798.793 298.5,797.5 Z"/></g></svg>