<svg xmlns="http://www.w3.org/2000/svg" width="1440" height="1440" preserveAspectRatio="xMidYMid meet" version="1.0" viewBox="0 0 1080 1080"><metadata>Created by potrace 1.14, written by Peter Selinger 2001-2017</metadata><g fill="#000" stroke="none"><path d="M5098 10795 c-2 -1 -61 -6 -133 -9 -71 -4 -139 -9 -150 -11 -11 -2 -47 -7 -80 -10 -33 -3 -71 -7 -84 -10 -14 -2 -45 -7 -70 -10 -25 -3 -57 -7 -71 -10 -14 -2 -77 -13 -140 -24 -214 -36 -531 -118 -733 -188 -289 -99 -643 -250 -807 -344 -25 -15 -99 -57 -165 -94 -441 -249 -892 -611 -1266 -1016 -162 -176 -357 -425 -493 -629 -42 -63 -80 -119 -84 -125 -55 -72 -239 -413 -326 -601 -101 -220 -218 -525 -266 -694 -69 -241 -128 -492 -145 -615 -4 -22 -8 -47 -10 -55 -2 -8 -7 -35 -10 -60 -3 -25 -11 -74 -16 -109 -5 -35 -12 -89 -15 -120 -3 -31 -7 -67 -9 -80 -25 -154 -25 -802 0 -1028 19 -167 29 -240 61 -426 33 -197 116 -535 169 -688 14 -41 28 -83 30 -94 3 -11 9 -29 14 -40 5 -11 30 -76 56 -145 57 -152 83 -215 141 -338 24 -51 44 -96 44 -99 0 -3 9 -18 21 -34 11 -16 17 -29 13 -29 -3 0 -2 -6 3 -13 6 -6 32 -52 58 -102 98 -185 268 -455 384 -611 25 -34 53 -72 61 -84 8 -12 23 -32 33 -43 10 -12 31 -37 45 -56 94 -120 254 -300 384 -431 217 -220 434 -404 688 -587 169 -120 430 -288 430 -276 0 3 8 -1 18 -9 33 -30 266 -150 452 -235 213 -95 470 -191 676 -252 192 -56 467 -122 569 -136 22 -3 52 -8 67 -11 15 -3 39 -7 55 -9 15 -2 42 -6 58 -9 35 -6 169 -23 237 -30 204 -22 570 -32 778 -21 231 12 308 18 385 30 29 5 66 10 143 20 100 14 296 49 372 67 47 11 92 21 100 23 8 2 51 13 95 24 44 12 87 23 95 25 127 31 336 102 600 204 14 5 27 10 30 10 7 1 189 86 300 140 355 173 813 472 1075 703 232 203 368 336 515 498 41 46 80 88 85 94 37 41 167 201 200 247 21 30 42 57 45 60 34 30 261 376 340 518 8 15 17 29 20 32 16 16 175 332 233 463 100 226 242 632 283 810 2 9 6 26 9 38 2 11 7 29 10 39 3 10 7 27 9 37 2 10 9 36 14 58 13 46 14 53 47 233 13 74 27 159 31 190 3 31 8 64 9 73 3 14 7 43 20 148 34 277 25 927 -16 1211 -12 79 -13 85 -24 165 -3 28 -8 57 -10 65 -3 8 -7 33 -10 55 -38 261 -194 796 -316 1080 -156 366 -298 630 -502 935 -70 105 -245 342 -287 390 -12 14 -34 40 -48 59 -15 18 -38 45 -52 60 -14 16 -63 70 -110 121 -106 116 -248 258 -348 347 -41 38 -80 73 -86 79 -6 5 -38 32 -71 58 -33 27 -62 52 -65 56 -24 33 -516 380 -540 380 -5 0 -10 4 -10 8 0 5 -15 16 -32 25 -18 9 -55 30 -83 47 -369 222 -931 455 -1343 556 -23 5 -137 33 -187 45 -143 34 -511 92 -660 104 -44 4 -100 9 -125 11 -50 5 -607 14 -612 9z" transform="translate(0.000000,1080.000000) scale(0.100000,-0.100000)"/></g></svg>