<?xml version="1.0" standalone="no"?>
<!DOCTYPE svg PUBLIC "-//W3C//DTD SVG 20010904//EN"
 "http://www.w3.org/TR/2001/REC-SVG-20010904/DTD/svg10.dtd">
<svg version="1.0" xmlns="http://www.w3.org/2000/svg"
 width="505.000000pt" height="505.000000pt" viewBox="0 0 505.000000 505.000000"
 preserveAspectRatio="xMidYMid meet">
<metadata>
Created by potrace 1.14, written by Peter Selinger 2001-2017
</metadata>
<g transform="translate(0.000000,505.000000) scale(0.100000,-0.100000)"
fill="#000000" stroke="none">
<path d="M2290 4589 c-25 -3 -67 -9 -95 -13 -60 -7 -104 -15 -127 -22 -10 -3
-30 -8 -45 -10 -133 -24 -420 -148 -568 -244 -130 -85 -203 -146 -330 -275
-141 -142 -136 -137 -228 -274 -126 -186 -221 -401 -272 -616 -23 -98 -27
-121 -44 -275 -12 -103 -4 -367 13 -465 8 -43 24 -126 31 -152 3 -13 7 -32 10
-44 7 -32 15 -62 24 -84 5 -11 14 -38 21 -60 28 -88 107 -254 169 -356 113
-185 265 -360 421 -484 41 -33 77 -63 80 -66 29 -33 304 -190 395 -225 268
-103 474 -142 740 -142 153 1 301 16 410 42 65 16 182 48 195 53 8 3 20 7 25
8 43 11 209 88 306 143 20 11 47 26 60 34 13 7 26 15 29 18 3 3 28 20 55 39
127 88 269 216 365 331 30 36 58 67 61 70 4 3 36 49 73 104 118 175 217 400
272 616 46 182 66 481 43 650 -5 36 -12 83 -15 105 -8 58 -32 160 -56 240 -12
39 -22 75 -24 80 -11 55 -156 357 -184 385 -3 3 -23 32 -44 65 -86 132 -229
289 -367 402 -79 64 -252 183 -267 183 -5 0 -20 8 -33 18 -25 20 -233 110
-310 136 -58 19 -203 56 -244 62 -16 3 -46 7 -65 9 -19 3 -51 8 -70 11 -52 9
-358 12 -410 3z m378 -84 c42 -4 79 -8 82 -10 3 -2 28 -6 55 -9 114 -15 344
-91 479 -158 366 -183 660 -478 834 -839 93 -192 145 -362 167 -539 3 -19 8
-62 12 -95 13 -97 7 -310 -11 -425 -2 -14 -7 -45 -11 -70 -4 -24 -8 -48 -11
-51 -2 -4 -6 -24 -10 -45 -7 -43 -48 -182 -69 -229 -86 -201 -127 -275 -237
-428 -71 -100 -211 -249 -303 -322 -27 -22 -56 -45 -63 -52 -15 -15 -179 -123
-186 -123 -2 0 -26 -13 -53 -30 -86 -53 -357 -155 -464 -174 -19 -4 -45 -9
-59 -11 -14 -2 -36 -7 -50 -10 -85 -18 -353 -25 -475 -12 -106 12 -141 17
-233 38 -49 11 -232 68 -247 77 -5 4 -12 7 -15 8 -64 12 -289 140 -417 236
-165 124 -299 266 -417 443 -161 240 -255 491 -296 785 -15 101 -19 312 -9
390 4 30 10 78 14 105 18 141 85 362 158 517 115 244 295 472 503 636 44 34
84 67 90 72 33 26 160 102 239 142 175 90 454 170 636 184 46 3 85 7 87 8 4 5
199 -2 280 -9z"/>
<path d="M3235 3887 c-16 -5 -46 -21 -65 -35 -39 -29 -180 -173 -180 -183 0
-4 106 -113 235 -242 l236 -234 23 18 c55 44 172 173 189 210 25 56 24 139 -3
192 -27 52 -190 220 -248 254 -47 28 -134 37 -187 20z"/>
<path d="M2251 2938 l-692 -692 241 -240 240 -241 690 690 c379 379 690 694
690 700 0 11 -461 475 -471 475 -3 0 -318 -311 -698 -692z"/>
<path d="M1510 2188 c-11 -26 -72 -226 -76 -248 -2 -8 -7 -23 -12 -35 -10 -20
-64 -192 -62 -197 0 -2 -9 -30 -20 -63 -23 -63 -24 -68 -39 -127 -10 -43 -10
-43 44 -24 22 8 130 46 240 85 361 126 397 139 408 150 7 7 -60 80 -225 246
-130 129 -238 235 -242 235 -4 0 -11 -10 -16 -22z"/>
</g>
</svg>
